<?xml version="1.0" standalone="no"?>
<!DOCTYPE svg PUBLIC "-//W3C//DTD SVG 20010904//EN"
 "http://www.w3.org/TR/2001/REC-SVG-20010904/DTD/svg10.dtd">
<svg version="1.0" xmlns="http://www.w3.org/2000/svg"
 width="559.000000pt" height="559.000000pt" viewBox="0 0 559.000000 559.000000"
 preserveAspectRatio="xMidYMid meet">

<g transform="translate(0.000000,559.000000) scale(0.100000,-0.100000)"
fill="#000000" stroke="none">
<path d="M2465 4776 c-159 -95 -468 -278 -685 -406 -512 -302 -592 -350 -608
-365 -10 -9 -13 -182 -15 -879 l-2 -868 55 -33 c30 -18 107 -62 170 -97 668
-374 1148 -643 1254 -704 71 -41 133 -74 139 -74 9 0 210 113 812 458 187 108
375 215 418 240 42 24 77 48 77 54 0 5 5 6 10 3 6 -3 10 1 10 9 0 8 9 20 20
26 11 6 20 17 20 24 0 8 6 19 14 25 31 26 106 130 88 123 -20 -8 -602 -338
-1136 -644 -180 -103 -332 -188 -336 -188 -5 0 -21 11 -37 23 -15 13 -53 37
-83 54 -30 16 -158 89 -285 160 -126 72 -396 223 -600 335 -203 113 -398 222
-432 242 l-63 37 0 798 0 798 448 263 c865 508 1007 593 1025 609 12 10 17 24
14 41 -3 14 -2 44 2 68 5 23 6 42 2 41 -3 0 -136 -78 -296 -173z"/>
<path d="M3223 4282 c-87 -55 -183 -115 -213 -135 l-54 -36 -30 19 c-17 11
-107 68 -200 127 -136 86 -172 104 -185 95 -9 -6 -71 -46 -139 -88 -129 -82
-140 -91 -126 -104 5 -4 56 21 114 56 58 35 116 64 129 64 13 0 99 -46 190
-101 91 -56 178 -109 192 -117 25 -15 29 -14 125 50 54 36 132 86 172 112 66
42 202 145 202 153 0 11 -34 -8 -177 -95z"/>
<path d="M3410 4366 c0 -3 14 -12 30 -21 17 -9 30 -13 30 -11 0 3 -13 12 -30
21 -16 9 -30 13 -30 11z"/>
<path d="M3570 4271 c14 -11 30 -21 35 -21 11 0 -7 14 -40 31 -13 7 -12 3 5
-10z"/>
<path d="M2114 4204 c-22 -27 -46 -58 -51 -69 -7 -12 -11 -87 -11 -182 l1
-162 38 -27 c63 -44 35 -40 -36 4 l-65 41 0 -77 0 -77 -43 -24 c-103 -60 -326
-213 -369 -255 -32 -32 -48 -56 -51 -79 -3 -26 -11 102 -10 176 0 9 -1 17 -3
17 -1 0 -25 -24 -53 -52 l-51 -53 0 -205 c0 -258 6 -282 85 -337 41 -29 382
-211 420 -224 26 -10 41 -8 85 8 l54 21 -52 32 -53 32 78 58 c68 50 153 94
139 71 -3 -4 2 -20 10 -36 13 -25 12 -29 -3 -41 -13 -10 -14 -13 -4 -14 11 0
11 -3 0 -16 -17 -21 27 1 166 81 l94 55 183 -110 183 -110 6 -67 c4 -51 8 -62
13 -45 5 12 12 22 17 22 8 0 206 154 219 170 3 4 30 25 60 47 30 22 73 56 96
74 l40 34 -52 37 -53 36 -123 -72 c-68 -39 -137 -80 -154 -90 l-31 -18 -149
87 c-82 49 -157 95 -167 103 -16 14 -17 33 -15 181 l3 166 110 67 c61 37 129
77 151 90 l42 22 118 -71 c175 -104 241 -136 248 -118 5 14 -13 26 -235 165
-90 57 -91 57 -39 93 53 37 -1 14 -76 -32 -193 -118 -263 -165 -325 -217 -37
-31 -71 -59 -76 -63 -6 -3 -13 -13 -16 -21 -3 -8 -6 19 -6 61 l-1 76 38 26
c60 41 98 80 81 85 -22 7 -224 129 -298 181 l-66 46 3 138 c1 75 1 198 0 273
l-3 136 -41 -48z m27 -716 c88 -51 174 -104 191 -118 l30 -26 -25 -49 c-24
-46 -26 -61 -28 -190 l-2 -140 42 -29 c56 -41 42 -46 -20 -8 -27 18 -53 32
-56 32 -3 0 -53 -29 -113 -65 -59 -35 -114 -67 -124 -71 -10 -4 -84 33 -211
107 l-194 114 -3 184 -3 183 30 15 c17 9 63 36 103 60 77 48 175 92 205 93 10
0 90 -42 178 -92z"/>
<path d="M3650 4226 c0 -3 9 -10 20 -16 11 -6 20 -8 20 -6 0 3 -9 10 -20 16
-11 6 -20 8 -20 6z"/>
<path d="M3720 4186 c0 -3 14 -12 30 -21 17 -9 30 -13 30 -11 0 3 -13 12 -30
21 -16 9 -30 13 -30 11z"/>
<path d="M3860 4106 c0 -3 9 -10 20 -16 11 -6 20 -8 20 -6 0 3 -9 10 -20 16
-11 6 -20 8 -20 6z"/>
<path d="M3910 4076 c0 -3 9 -10 20 -16 11 -6 20 -8 20 -6 0 3 -9 10 -20 16
-11 6 -20 8 -20 6z"/>
<path d="M4030 4006 c0 -3 14 -12 30 -21 17 -9 30 -13 30 -11 0 3 -13 12 -30
21 -16 9 -30 13 -30 11z"/>
<path d="M2478 3923 c-16 -20 -28 -41 -28 -47 0 -6 23 -23 51 -39 l50 -27 36
27 c31 24 33 29 17 32 -31 5 -84 50 -84 72 0 28 -11 23 -42 -18z"/>
<path d="M4177 3919 c7 -7 15 -10 18 -7 3 3 -2 9 -12 12 -14 6 -15 5 -6 -5z"/>
<path d="M4213 3840 c0 -41 2 -58 4 -37 2 20 2 54 0 75 -2 20 -4 3 -4 -38z"/>
<path d="M2900 3808 c-18 -29 -41 -77 -51 -106 l-18 -53 46 -29 c26 -17 51
-30 55 -30 4 0 8 61 8 135 0 74 -2 135 -4 135 -2 0 -19 -24 -36 -52z"/>
<path d="M3912 3744 c-28 -19 -28 -41 -1 -70 18 -19 25 -21 45 -12 36 17 43
57 14 80 -27 22 -30 22 -58 2z"/>
<path d="M4213 3485 c0 -33 2 -45 4 -27 2 18 2 45 0 60 -2 15 -4 0 -4 -33z"/>
<path d="M3457 3305 c-97 -58 -177 -111 -177 -118 1 -38 18 -36 103 16 79 47
279 207 260 207 -5 0 -88 -47 -186 -105z"/>
<path d="M4214 3125 c0 -60 1 -84 3 -52 2 32 2 81 0 110 -2 29 -3 3 -3 -58z"/>
<path d="M3829 3066 c-19 -13 -48 -43 -63 -66 l-28 -42 21 -22 c11 -11 33 -29
49 -38 l30 -18 55 43 c52 39 56 45 57 82 0 34 -5 43 -33 63 -41 27 -44 27 -88
-2z"/>
<path d="M3261 3003 c-12 -27 -27 -55 -31 -64 -10 -19 21 -42 45 -33 11 5 15
22 15 75 0 38 -1 69 -3 69 -1 0 -13 -21 -26 -47z"/>
<path d="M4212 2970 c0 -19 2 -27 5 -17 2 9 2 25 0 35 -3 9 -5 1 -5 -18z"/>
<path d="M3250 2865 c-28 -29 -32 -38 -20 -45 8 -5 18 -6 22 -4 5 3 39 -12 76
-33 37 -20 81 -45 97 -54 l30 -16 3 -108 c2 -92 0 -111 -15 -128 -15 -17 -9
-15 35 8 l53 28 -3 125 -3 124 -112 69 c-62 38 -117 69 -121 69 -4 0 -24 -16
-42 -35z"/>
<path d="M2051 2613 c-53 -77 -60 -110 -61 -272 0 -169 10 -190 133 -272 198
-132 220 -135 362 -48 55 33 107 67 116 75 8 8 22 14 30 14 8 1 50 35 94 77
89 84 87 84 -112 -33 -78 -46 -148 -86 -155 -89 -8 -3 -90 39 -184 94 l-169
99 -5 210 -5 209 -44 -64z"/>
<path d="M3199 2650 c-36 -19 -131 -121 -141 -150 -7 -21 49 -60 86 -60 17 0
45 9 61 19 46 30 125 107 125 123 0 16 -71 88 -85 88 -6 -1 -26 -9 -46 -20z"/>
<path d="M3909 2559 c-26 -26 -21 -49 13 -68 24 -14 28 -14 47 3 26 24 27 48
3 69 -24 22 -38 21 -63 -4z"/>
<path d="M4209 2388 c-3 -22 -1 -34 4 -29 5 5 7 21 5 37 -3 27 -4 26 -9 -8z"/>
<path d="M2857 2370 l-28 -39 28 -7 c15 -4 57 -25 93 -47 36 -22 79 -47 95
-57 17 -9 60 -35 96 -57 36 -22 74 -43 85 -47 26 -8 197 92 306 181 193 155
183 154 -118 -23 l-142 -83 -181 109 c-100 61 -187 110 -194 110 -7 0 -25 -18
-40 -40z"/>
<path d="M2821 1967 c-25 -27 -21 -48 15 -72 22 -14 25 -14 49 7 31 27 32 52
3 72 -30 21 -41 20 -67 -7z"/>
<path d="M3525 1970 c-3 -6 1 -7 9 -4 18 7 21 14 7 14 -6 0 -13 -4 -16 -10z"/>
<path d="M3260 1820 c-9 -6 -10 -10 -3 -10 6 0 15 5 18 10 8 12 4 12 -15 0z"/>
<path d="M3514 1236 c-9 -24 4 -48 23 -44 12 2 18 12 18 28 0 29 -32 41 -41
16z"/>
<path d="M3090 1135 c0 -93 2 -105 19 -115 31 -16 51 -12 51 10 0 11 -4 20
-10 20 -6 0 -10 38 -10 95 0 95 0 95 -25 95 l-25 0 0 -105z"/>
<path d="M2760 1217 c-19 -9 -26 -22 -28 -50 -3 -35 -1 -38 43 -59 59 -29 58
-53 -3 -52 -34 1 -42 -3 -42 -17 0 -13 10 -20 35 -25 66 -12 114 26 103 83 -2
10 -22 28 -46 41 -56 31 -57 57 -2 49 34 -4 40 -2 40 13 0 29 -57 39 -100 17z"/>
<path d="M3390 1190 c0 -11 -7 -20 -15 -20 -8 0 -15 -9 -15 -20 0 -11 7 -20
15 -20 11 0 15 -11 15 -43 0 -51 25 -81 62 -75 30 4 38 38 9 38 -18 0 -21 6
-21 40 0 33 3 40 20 40 13 0 20 7 20 20 0 13 -7 20 -20 20 -13 0 -20 7 -20 20
0 15 -7 20 -25 20 -18 0 -25 -5 -25 -20z"/>
<path d="M2933 1160 c-42 -17 -56 -77 -28 -117 34 -48 135 -34 149 22 18 72
-48 124 -121 95z m72 -50 c10 -32 -4 -60 -30 -60 -26 0 -40 28 -30 60 4 13 15
20 30 20 15 0 26 -7 30 -20z"/>
<path d="M3190 1110 c0 -47 4 -64 20 -80 23 -23 33 -24 61 -10 13 7 19 7 19 0
0 -5 11 -10 25 -10 25 0 25 1 25 80 0 78 -1 80 -25 80 -22 0 -24 -4 -27 -57
-3 -50 -6 -58 -23 -58 -17 0 -20 8 -23 58 -3 53 -5 57 -27 57 -24 0 -25 -3
-25 -60z"/>
<path d="M3510 1090 c0 -79 0 -80 25 -80 25 0 25 1 25 80 0 79 0 80 -25 80
-25 0 -25 -1 -25 -80z"/>
<path d="M3633 1160 c-42 -17 -56 -77 -28 -117 34 -48 135 -34 149 22 18 72
-48 124 -121 95z m72 -50 c10 -32 -4 -60 -30 -60 -26 0 -40 28 -30 60 4 13 15
20 30 20 15 0 26 -7 30 -20z"/>
<path d="M3790 1090 c0 -78 1 -80 25 -80 22 0 24 4 27 58 3 49 6 57 23 57 17
0 20 -8 23 -57 3 -54 5 -58 27 -58 24 0 25 3 25 60 0 47 -4 64 -20 80 -23 23
-33 24 -61 10 -13 -7 -19 -7 -19 0 0 5 -11 10 -25 10 -25 0 -25 -1 -25 -80z"/>
<path d="M3996 1157 c-28 -20 -17 -59 22 -77 36 -18 33 -30 -9 -30 -42 0 -45
-28 -4 -36 76 -14 114 55 48 86 -40 19 -42 30 -4 30 35 0 49 26 18 34 -34 9
-52 7 -71 -7z"/>
</g>
</svg>
